<svg width="32" height="32" viewBox="0 0 32 32" fill="none" xmlns="http://www.w3.org/2000/svg">
<path d="M28.3327 16.0003C28.3327 18.4396 27.6093 20.8242 26.2541 22.8524C24.8989 24.8806 22.9727 26.4614 20.7191 27.3948C18.4655 28.3283 15.9857 28.5726 13.5932 28.0967C11.2008 27.6208 9.00321 26.4462 7.27837 24.7213C5.55352 22.9965 4.37888 20.7989 3.903 18.4064C3.42711 16.014 3.67135 13.5342 4.60483 11.2806C5.53832 9.02694 7.11911 7.10074 9.14732 5.74553C11.1755 4.39033 13.56 3.66699 15.9993 3.66699" stroke="#171B1E" stroke-width="2" stroke-linecap="round"/>
<path d="M23.334 4V10.6667" stroke="#171B1E" stroke-width="2" stroke-linecap="round"/>
<path d="M26.6673 9.33301L23.334 12.6663" stroke="#171B1E" stroke-width="2" stroke-linecap="round"/>
<path d="M20 9.33301L23.3333 12.6663" stroke="#171B1E" stroke-width="2" stroke-linecap="round"/>
<path d="M16.002 12V21.3333" stroke="#171B1E" stroke-width="1.55556" stroke-linecap="round" stroke-linejoin="round"/>
<path d="M13.4082 18.4812C13.4082 19.4871 14.186 20.296 15.1401 20.296H17.0897C17.9193 20.296 18.5934 19.5908 18.5934 18.7093C18.5934 17.7656 18.1786 17.4234 17.5667 17.2056L14.4452 16.1167C13.8334 15.899 13.4186 15.5671 13.4186 14.613C13.4186 13.7419 14.0926 13.0264 14.9223 13.0264H16.8719C17.826 13.0264 18.6038 13.8353 18.6038 14.8412" stroke="#171B1E" stroke-width="1.55556" stroke-linecap="round" stroke-linejoin="round"/>
</svg>
