<svg width="32" height="32" viewBox="0 0 32 32" fill="none" xmlns="http://www.w3.org/2000/svg">
<path fill-rule="evenodd" clip-rule="evenodd" d="M25.3327 2.66699C25.885 2.66699 26.3327 3.11471 26.3327 3.66699V6.66699H29.3327C29.885 6.66699 30.3327 7.11471 30.3327 7.66699C30.3327 8.21928 29.885 8.66699 29.3327 8.66699H26.3327V11.667C26.3327 12.2193 25.885 12.667 25.3327 12.667C24.7804 12.667 24.3327 12.2193 24.3327 11.667V8.66699H21.3327C20.7804 8.66699 20.3327 8.21928 20.3327 7.66699C20.3327 7.11471 20.7804 6.66699 21.3327 6.66699H24.3327V3.66699C24.3327 3.11471 24.7804 2.66699 25.3327 2.66699ZM9.66602 3.33366L9.61207 3.33366H9.61207C8.2534 3.33364 7.15775 3.33363 6.27866 3.42306C5.37125 3.51537 4.58431 3.71116 3.88817 4.17631C3.34221 4.5411 2.87346 5.00986 2.50867 5.55581C2.04352 6.25195 1.84772 7.03889 1.75542 7.9463C1.67237 8.76262 1.66645 9.76567 1.66605 10.9927L1.66602 11.0003L1.66604 11.0074L1.66602 11.2797L1.66602 11.3337V20.0003L1.66602 20.0543C1.666 21.4129 1.66599 22.5086 1.75542 23.3877C1.84772 24.2951 2.04352 25.082 2.50867 25.7782C2.87346 26.3241 3.34221 26.7929 3.88817 27.1577C4.58431 27.6228 5.37125 27.8186 6.27866 27.9109C7.15776 28.0004 8.25341 28.0003 9.61209 28.0003H9.61214H9.66602H22.3327H22.3866H22.3866C23.7453 28.0003 24.8409 28.0004 25.72 27.9109C26.6275 27.8186 27.4144 27.6228 28.1105 27.1577C28.6565 26.7929 29.1252 26.3241 29.49 25.7782C29.9552 25.082 30.151 24.2951 30.2433 23.3877C30.3327 22.5086 30.3327 21.413 30.3327 20.0543V20.0543V20.0003V15.667C30.3327 15.1147 29.885 14.667 29.3327 14.667C28.7804 14.667 28.3327 15.1147 28.3327 15.667V20.0003C28.3327 21.4256 28.3315 22.4193 28.2535 23.1853C28.1773 23.9345 28.0361 24.3543 27.8271 24.667C27.6082 24.9946 27.327 25.2759 26.9994 25.4947C26.6866 25.7037 26.2669 25.845 25.5176 25.9212C24.7516 25.9991 23.758 26.0003 22.3327 26.0003H9.66602C8.24074 26.0003 7.24706 25.9991 6.48107 25.9212C5.7318 25.845 5.31206 25.7037 4.99931 25.4947C4.67174 25.2759 4.39048 24.9946 4.17161 24.667C3.96263 24.3543 3.82137 23.9345 3.74515 23.1853C3.66723 22.4193 3.66602 21.4256 3.66602 20.0003V12.0003H18.666C19.2183 12.0003 19.666 11.5526 19.666 11.0003C19.666 10.448 19.2183 10.0003 18.666 10.0003H3.66958C3.67604 9.24777 3.6942 8.64957 3.74515 8.14871C3.82137 7.39944 3.96263 6.9797 4.17161 6.66695C4.39048 6.33938 4.67174 6.05813 4.99931 5.83925C5.31206 5.63028 5.7318 5.48901 6.48107 5.41279C7.24706 5.33487 8.24074 5.33366 9.66602 5.33366H18.666C19.2183 5.33366 19.666 4.88594 19.666 4.33366C19.666 3.78137 19.2183 3.33366 18.666 3.33366H9.66602ZM6.99935 21.667C6.99935 21.1147 7.44706 20.667 7.99935 20.667H13.3327C13.885 20.667 14.3327 21.1147 14.3327 21.667C14.3327 22.2193 13.885 22.667 13.3327 22.667H7.99935C7.44706 22.667 6.99935 22.2193 6.99935 21.667ZM17.3327 20.667C16.7804 20.667 16.3327 21.1147 16.3327 21.667C16.3327 22.2193 16.7804 22.667 17.3327 22.667H19.9993C20.5516 22.667 20.9993 22.2193 20.9993 21.667C20.9993 21.1147 20.5516 20.667 19.9993 20.667H17.3327Z" fill="#171B1E"/>
</svg>
